<svg width="643" height="337" viewBox="0 0 643 337" xmlns="http://www.w3.org/2000/svg"><title>Group 8</title><g fill="none" fill-rule="evenodd"><path fill="#EAEAEA" d="M0 0h643v337H0z"/><path d="M257 162.479c2.506-31.687 27.79-56.974 59.477-59.479v8.28c0 .915-.209 1.41-1.335 1.542-25.248 2.97-45.29 22.977-48.31 48.209-.162 1.351-.924 1.448-1.956 1.448H257z" fill="#D3D6D7"/><path d="M326.837 103c31.686 2.505 56.971 27.792 59.476 59.479h-7.917c-1.436 0-1.749-.695-1.96-1.812-3.165-25.046-23.115-44.867-48.222-47.84-1.174-.138-1.377-.95-1.377-1.613V103zm-19.927 52.569c7.075-1.119 14.568 1.045 20.019 6.495 5.618 5.619 7.745 13.407 6.383 20.67-7.075 1.119-14.568-1.045-20.019-6.495-5.618-5.619-7.745-13.408-6.382-20.67z" fill="#D3D5D7"/><path d="M341.413 136.8H298.06l-.223.003h-.011a6.393 6.393 0 0 0-.214.008l-.02.001-.21.013h-.012l-.21.02h-.014l-.21.025-.018.003a8.394 8.394 0 0 0-.203.028l-.024.003-.188.032-.026.004-.193.037-.03.007a13.85 13.85 0 0 0-.192.041l-.023.006-.181.044-.037.01-.173.046-.04.012a5.131 5.131 0 0 0-.17.05l-.05.015-.156.051-.045.015a4.762 4.762 0 0 0-.16.057l-.042.016-.16.061-.053.02-.137.056-.07.03-.13.056-.07.033-.129.06-.06.029c-.04.019-.08.038-.118.058l-.087.045a4.727 4.727 0 0 0-.194.104l-.105.059-.082.046-.09.054a3.621 3.621 0 0 0-.093.056l-.093.058-.095.06-.09.06a8.883 8.883 0 0 0-3.96 7.398v52.827h3.46a8.892 8.892 0 0 0 8.89-8.89l-.001-.038v-43.528h33.161a4.436 4.436 0 0 1 3.914 4.053v42.228a6.176 6.176 0 0 0 6.175 6.175h9.376v-9.262h-1.306a2.243 2.243 0 0 1-1.896-1.884V145.69a8.891 8.891 0 0 0-8.89-8.89h-.639z" fill="#D3D6D7"/><path d="M257 172.838c2.506 31.687 27.79 56.974 59.477 59.48v-8.281c0-.915-.209-1.41-1.335-1.542-25.248-2.97-45.29-22.977-48.31-48.209-.162-1.351-.924-1.448-1.956-1.448H257zm69.837 59.479c31.686-2.505 56.971-27.792 59.476-59.478h-7.917c-1.436 0-1.749.695-1.96 1.811-3.165 25.046-23.115 44.868-48.222 47.84-1.174.139-1.377.951-1.377 1.613v8.214z" fill="#D3D5D7"/></g></svg>